<svg xmlns="http://www.w3.org/2000/svg" xmlns:xlink="http://www.w3.org/1999/xlink" viewBox="0 0 116 116.03"><defs><style>.cls-1{fill:none;}.cls-2{isolation:isolate;}.cls-3{clip-path:url(#clip-path);}.cls-4{fill:#858585;}.cls-5{clip-path:url(#clip-path-2);}.cls-6{clip-path:url(#clip-path-3);}.cls-7{clip-path:url(#clip-path-4);}.cls-8{clip-path:url(#clip-path-5);}.cls-9{clip-path:url(#clip-path-6);}.cls-10{clip-path:url(#clip-path-7);}.cls-11{clip-path:url(#clip-path-8);}.cls-12{clip-path:url(#clip-path-9);}.cls-13{clip-path:url(#clip-path-10);}.cls-14{clip-path:url(#clip-path-11);}.cls-15{clip-path:url(#clip-path-12);}.cls-16{clip-path:url(#clip-path-13);}.cls-17{clip-path:url(#clip-path-14);}.cls-18{clip-path:url(#clip-path-15);}.cls-19{clip-path:url(#clip-path-16);}.cls-20{clip-path:url(#clip-path-17);}.cls-21{clip-path:url(#clip-path-18);}.cls-22{clip-path:url(#clip-path-19);}.cls-23{clip-path:url(#clip-path-20);}.cls-24{clip-path:url(#clip-path-21);}.cls-25{clip-path:url(#clip-path-22);}.cls-26{clip-path:url(#clip-path-23);}.cls-27{clip-path:url(#clip-path-24);}.cls-28{clip-path:url(#clip-path-25);}.cls-29{clip-path:url(#clip-path-26);}.cls-30{clip-path:url(#clip-path-27);}.cls-31{clip-path:url(#clip-path-28);}.cls-32{clip-path:url(#clip-path-29);}.cls-33{clip-path:url(#clip-path-30);}.cls-34{clip-path:url(#clip-path-31);}.cls-35{clip-path:url(#clip-path-32);}.cls-36{clip-path:url(#clip-path-33);}.cls-37{clip-path:url(#clip-path-34);}.cls-38{clip-path:url(#clip-path-35);}.cls-39{clip-path:url(#clip-path-36);}.cls-40{clip-path:url(#clip-path-37);}.cls-41{clip-path:url(#clip-path-38);}.cls-42{clip-path:url(#clip-path-39);}.cls-43{clip-path:url(#clip-path-40);}.cls-44{clip-path:url(#clip-path-41);}.cls-45{clip-path:url(#clip-path-42);}.cls-46{clip-path:url(#clip-path-43);}.cls-47{clip-path:url(#clip-path-44);}.cls-48{clip-path:url(#clip-path-45);}.cls-49{clip-path:url(#clip-path-46);}.cls-50{clip-path:url(#clip-path-47);}.cls-51{clip-path:url(#clip-path-48);}.cls-52{clip-path:url(#clip-path-49);}.cls-53{clip-path:url(#clip-path-50);}.cls-54{clip-path:url(#clip-path-51);}.cls-55{clip-path:url(#clip-path-52);}.cls-56{fill:#fdfdfd;}</style><clipPath id="clip-path"><path class="cls-1" d="M100.26,93.06l-7.48,7.44c10.69-10.64,14.63-27.59,8.83-45.43C95,34.82,77.71,19,58.55,13.64L66,6.19a64.81,64.81,0,0,1,43.06,41.44C114.88,65.47,110.94,82.41,100.26,93.06Z"/></clipPath><clipPath id="clip-path-2"><path class="cls-1" d="M68.83,13.51,61.36,21l-.42-.42,7.47-7.45Z"/></clipPath><clipPath id="clip-path-3"><path class="cls-1" d="M68.41,13.09l-7.47,7.45-.47-.46,7.47-7.44C68.1,12.78,68.25,12.94,68.41,13.09Z"/></clipPath><clipPath id="clip-path-4"><path class="cls-1" d="M69.28,14l-7.47,7.45L61.36,21l7.47-7.45Z"/></clipPath><clipPath id="clip-path-5"><path class="cls-1" d="M69.69,14.42l-7.48,7.44-.4-.42L69.28,14Z"/></clipPath><clipPath id="clip-path-6"><path class="cls-1" d="M67.94,12.64l-7.47,7.44-.44-.4,7.47-7.45Z"/></clipPath><clipPath id="clip-path-7"><path class="cls-1" d="M70.12,14.92l-7.47,7.45-.44-.51,7.48-7.44Z"/></clipPath><clipPath id="clip-path-8"><path class="cls-1" d="M70.51,15.37,63,22.82l-.38-.45,7.47-7.45C70.24,15.07,70.37,15.21,70.51,15.37Z"/></clipPath><clipPath id="clip-path-9"><path class="cls-1" d="M67.5,12.23,60,19.68l-.48-.44-.46-.38-.5-.42-.46-.36,7.47-7.45.47.37c.17.13.33.27.49.41l.46.38Z"/></clipPath><clipPath id="clip-path-10"><path class="cls-1" d="M71.29,16.35,63.81,23.8c-.12-.16-.24-.32-.37-.47L63,22.82l7.48-7.45.41.51Z"/></clipPath><clipPath id="clip-path-11"><path class="cls-1" d="M71.69,16.89l-7.48,7.45c-.13-.18-.26-.37-.4-.54l7.48-7.45C71.43,16.52,71.55,16.71,71.69,16.89Z"/></clipPath><clipPath id="clip-path-12"><path class="cls-1" d="M65.6,10.63l-7.47,7.45c-.17-.13-.34-.27-.51-.39l-.48-.36,7.47-7.44.49.35C65.27,10.36,65.44,10.5,65.6,10.63Z"/></clipPath><clipPath id="clip-path-13"><path class="cls-1" d="M72,17.36l-7.47,7.45c-.12-.17-.23-.32-.35-.47l7.48-7.45Z"/></clipPath><clipPath id="clip-path-14"><path class="cls-1" d="M72.42,17.92l-7.48,7.45c-.12-.19-.25-.38-.38-.56L72,17.36C72.17,17.54,72.29,17.74,72.42,17.92Z"/></clipPath><clipPath id="clip-path-15"><path class="cls-1" d="M64.61,9.89l-7.47,7.44L56.62,17l-.49-.32-.54-.35,7.47-7.45.54.35.49.33A6.15,6.15,0,0,1,64.61,9.89Z"/></clipPath><clipPath id="clip-path-16"><path class="cls-1" d="M73.09,19l-7.47,7.45-.35-.58-.33-.48,7.48-7.45c.1.16.21.32.32.48Z"/></clipPath><clipPath id="clip-path-17"><path class="cls-1" d="M73.4,19.47l-7.48,7.45c-.09-.16-.19-.33-.3-.49L73.09,19C73.2,19.14,73.3,19.31,73.4,19.47Z"/></clipPath><clipPath id="clip-path-18"><path class="cls-1" d="M63.06,8.84l-7.47,7.45L55.08,16l-.54-.32L62,8.21c.19.1.37.21.55.32Z"/></clipPath><clipPath id="clip-path-19"><path class="cls-1" d="M74,20.58,66.54,28l-.27-.5-.35-.61,7.48-7.45.34.62C73.83,20.25,73.93,20.41,74,20.58Z"/></clipPath><clipPath id="clip-path-20"><path class="cls-1" d="M62,8.21l-7.47,7.45c-.17-.1-.34-.2-.52-.29l-.55-.3L61,7.62l.55.3Z"/></clipPath><clipPath id="clip-path-21"><path class="cls-1" d="M74.58,21.7l-7.47,7.45-.24-.48c-.11-.22-.22-.44-.33-.64L74,20.58c.12.2.23.43.33.64S74.51,21.54,74.58,21.7Z"/></clipPath><clipPath id="clip-path-22"><path class="cls-1" d="M61,7.62l-7.48,7.45L53,14.8l-.57-.28,7.48-7.44.56.27Z"/></clipPath><clipPath id="clip-path-23"><path class="cls-1" d="M74.9,22.4l-7.47,7.45c-.1-.23-.21-.46-.32-.7l7.47-7.45C74.7,21.94,74.8,22.17,74.9,22.4Z"/></clipPath><clipPath id="clip-path-24"><path class="cls-1" d="M59.86,7.08l-7.48,7.44-.53-.24L51.28,14l-.54-.23,7.47-7.44c.18.07.37.14.54.22l.57.25Z"/></clipPath><clipPath id="clip-path-25"><path class="cls-1" d="M58.21,6.36,50.74,13.8l-.57-.22-.56-.19-.57-.2L48.47,13,56,5.57l.56.17.58.2.55.2Z"/></clipPath><clipPath id="clip-path-26"><path class="cls-1" d="M56,5.57,48.47,13l-.58-.18L55.36,5.4Z"/></clipPath><clipPath id="clip-path-27"><path class="cls-1" d="M55.36,5.4l-7.47,7.44-.56-.15L54.8,5.25A5.12,5.12,0,0,1,55.36,5.4Z"/></clipPath><clipPath id="clip-path-28"><path class="cls-1" d="M54.8,5.25l-7.47,7.44-.59-.14-.57-.13L53.64,5l.58.12Z"/></clipPath><clipPath id="clip-path-29"><path class="cls-1" d="M53.64,5l-7.47,7.44-.58-.11-.59-.1,7.48-7.44a5.4,5.4,0,0,1,.58.09Z"/></clipPath><clipPath id="clip-path-30"><path class="cls-1" d="M52.48,4.77,45,12.21l-.58-.09-.58-.07L43.26,12l-.59,0-.58,0,7.47-7.45c.19,0,.39,0,.58,0l.59,0,.59.06.58.06Z"/></clipPath><clipPath id="clip-path-31"><path class="cls-1" d="M49.56,4.47l-7.47,7.45H40.33L47.8,4.48l.59,0h1.17Z"/></clipPath><clipPath id="clip-path-32"><path class="cls-1" d="M47.8,4.48l-7.47,7.44-.58,0-.58,0-.59.06,7.48-7.44.58-.07.58,0Z"/></clipPath><clipPath id="clip-path-33"><path class="cls-1" d="M71.78,47,64.3,54.44c5.12-5.1,7-13.21,4.23-21.76q-.19-.6-.42-1.2c0-.12-.11-.25-.16-.38s-.2-.53-.32-.8-.13-.3-.2-.45L74.9,22.4c.07.16.14.3.21.45l.32.8.15.39c.15.39.29.79.42,1.19C78.78,33.78,76.89,41.9,71.78,47Z"/></clipPath><clipPath id="clip-path-34"><path class="cls-1" d="M15.74,23l7.47-7.45A39,39,0,0,1,45.61,4.67l.45,0-7.48,7.44-.45.06A38.94,38.94,0,0,0,15.74,23Z"/></clipPath><clipPath id="clip-path-35"><path class="cls-1" d="M75,50.27l-7.48,7.45a21.94,21.94,0,0,1-12.62,6.11A18.62,18.62,0,0,0,44.22,69l7.47-7.45a18.71,18.71,0,0,1,10.73-5.19A21.94,21.94,0,0,0,75,50.27Z"/></clipPath><clipPath id="clip-path-36"><path class="cls-1" d="M41,65.74l7.47-7.45c-6,6-8.24,15.55-5,25.6.15.48.32,1,.49,1.42l.19.45-7.48,7.45c0-.15-.12-.3-.18-.45-.18-.47-.34-1-.49-1.42C32.72,81.28,34.94,71.74,41,65.74Z"/></clipPath><clipPath id="clip-path-37"><path class="cls-1" d="M44.52,86.71l-7.47,7.44c-.14-.31-.26-.63-.39-.94l7.48-7.45C44.26,86.08,44.38,86.39,44.52,86.71Z"/></clipPath><clipPath id="clip-path-38"><path class="cls-1" d="M44.75,87.23l-7.48,7.44-.22-.52,7.47-7.44C44.59,86.88,44.68,87.06,44.75,87.23Z"/></clipPath><clipPath id="clip-path-39"><path class="cls-1" d="M46.12,90,38.64,97.4c-.09-.18-.21-.37-.3-.54s-.27-.53-.4-.8l-.28-.54-.39-.85,7.48-7.44c.13.28.25.56.39.84l.27.54c.13.27.26.54.4.8Z"/></clipPath><clipPath id="clip-path-40"><path class="cls-1" d="M46.54,90.71l-7.47,7.44c-.15-.24-.28-.5-.43-.75L46.12,90Z"/></clipPath><clipPath id="clip-path-41"><path class="cls-1" d="M46.88,91.25,39.4,98.69q-.16-.25-.33-.54l7.47-7.44Z"/></clipPath><clipPath id="clip-path-42"><path class="cls-1" d="M47.33,92l-7.48,7.45-.45-.74,7.48-7.44Z"/></clipPath><clipPath id="clip-path-43"><path class="cls-1" d="M57.46,102.38,50,109.83l-.52-.38-.53-.38-.64-.49,7.48-7.45c.2.16.41.33.63.49l.53.38Z"/></clipPath><clipPath id="clip-path-44"><path class="cls-1" d="M49.05,94.4l-7.47,7.45c-.18-.22-.34-.45-.51-.67l-.38-.52c-.16-.23-.31-.47-.48-.7s-.24-.36-.36-.53L47.33,92l.36.53c.16.24.31.47.48.7s.25.35.38.52S48.87,94.18,49.05,94.4Z"/></clipPath><clipPath id="clip-path-45"><path class="cls-1" d="M55.77,101.13l-7.48,7.45-.52-.41,7.47-7.45C55.42,100.87,55.59,101,55.77,101.13Z"/></clipPath><clipPath id="clip-path-46"><path class="cls-1" d="M55.24,100.72l-7.47,7.45-.62-.51,7.47-7.45C54.82,100.38,55,100.56,55.24,100.72Z"/></clipPath><clipPath id="clip-path-47"><path class="cls-1" d="M50,95.56,42.51,103c-.19-.21-.36-.43-.53-.65l-.4-.51,7.47-7.45c.13.18.27.35.4.51S49.8,95.35,50,95.56Z"/></clipPath><clipPath id="clip-path-48"><path class="cls-1" d="M51,96.68l-7.48,7.45c-.19-.2-.37-.41-.55-.63s-.29-.32-.42-.49L50,95.56l.42.5C50.59,96.27,50.77,96.48,51,96.68Z"/></clipPath><clipPath id="clip-path-49"><path class="cls-1" d="M54.62,100.21l-7.47,7.45c-.18-.14-.34-.29-.51-.43l-.61-.55-.48-.44L53,98.8l.49.44c.2.18.4.37.6.54Z"/></clipPath><clipPath id="clip-path-50"><path class="cls-1" d="M53,98.8l-7.47,7.44c-.2-.19-.4-.38-.59-.58l7.47-7.44C52.63,98.41,52.83,98.6,53,98.8Z"/></clipPath><clipPath id="clip-path-51"><path class="cls-1" d="M52.43,98.22,45,105.66c-.15-.15-.32-.3-.46-.45l-.58-.6-.44-.48L51,96.68c.14.17.29.32.44.48l.57.6C52.12,97.91,52.28,98.06,52.43,98.22Z"/></clipPath><clipPath id="clip-path-52"><path class="cls-1" d="M103.52,96.33l-7.47,7.45a42.23,42.23,0,0,1-24.3,11.76C43.43,119.52,12.54,98.62,2.9,69c-6.29-19.35-2-37.72,9.57-49.27L20,12.23C8.36,23.78,4.09,42.15,10.37,61.5,20,91.17,50.91,112.07,79.23,108.09A42.2,42.2,0,0,0,103.52,96.33Z"/></clipPath></defs><g id="Layer_2" data-name="Layer 2"><g id="Layer_1-2" data-name="Layer 1"><g class="cls-2"><g class="cls-2"><g class="cls-3"><g class="cls-2"><path class="cls-4" d="M100.26,93.06l-7.48,7.44c10.69-10.64,14.63-27.59,8.83-45.43C95,34.82,77.71,19,58.55,13.64L66,6.19a64.81,64.81,0,0,1,43.06,41.44c5.8,17.84,1.86,34.78-8.82,45.43"/></g></g></g><g class="cls-2"><g class="cls-5"><g class="cls-2"><path class="cls-4" d="M68.83,13.51,61.36,21l-.42-.42,7.47-7.45.42.42"/></g></g></g><g class="cls-2"><g class="cls-6"><g class="cls-2"><path class="cls-4" d="M68.41,13.09l-7.47,7.45-.47-.46,7.47-7.44c.16.14.31.3.47.45"/></g></g></g><g class="cls-2"><g class="cls-7"><g class="cls-2"><path class="cls-4" d="M69.28,14l-7.47,7.45L61.36,21l7.47-7.45.45.48"/></g></g></g><g class="cls-2"><g class="cls-8"><g class="cls-2"><path class="cls-4" d="M69.69,14.42l-7.48,7.44-.4-.42L69.28,14l.41.43"/></g></g></g><g class="cls-2"><g class="cls-9"><g class="cls-2"><path class="cls-4" d="M67.94,12.64l-7.47,7.44-.44-.4,7.47-7.45.44.41"/></g></g></g><g class="cls-2"><g class="cls-10"><g class="cls-2"><path class="cls-4" d="M70.12,14.92l-7.47,7.45-.44-.51,7.48-7.44.43.5"/></g></g></g><g class="cls-2"><g class="cls-11"><g class="cls-2"><path class="cls-4" d="M70.51,15.37,63,22.82l-.38-.45,7.47-7.45c.12.15.25.29.39.45"/></g></g></g><g class="cls-2"><g class="cls-12"><g class="cls-2"><path class="cls-4" d="M67.5,12.23,60,19.68l-.48-.44-.46-.38-.5-.42-.46-.36,7.47-7.45.47.37c.17.13.33.27.49.41l.46.38.48.44"/></g></g></g><g class="cls-2"><g class="cls-13"><g class="cls-2"><path class="cls-4" d="M71.29,16.35,63.81,23.8c-.12-.16-.24-.32-.37-.47L63,22.82l7.48-7.45.41.51.37.47"/></g></g></g><g class="cls-2"><g class="cls-14"><g class="cls-2"><path class="cls-4" d="M71.69,16.89l-7.48,7.45c-.13-.18-.26-.37-.4-.54l7.48-7.45c.14.17.26.36.4.54"/></g></g></g><g class="cls-2"><g class="cls-15"><g class="cls-2"><path class="cls-4" d="M65.6,10.63l-7.47,7.45c-.17-.13-.34-.27-.51-.39l-.48-.36,7.47-7.44.49.35c.17.12.34.26.5.39"/></g></g></g><g class="cls-2"><g class="cls-16"><g class="cls-2"><path class="cls-4" d="M72,17.36l-7.47,7.45c-.12-.17-.23-.32-.35-.47l7.48-7.45.34.47"/></g></g></g><g class="cls-2"><g class="cls-17"><g class="cls-2"><path class="cls-4" d="M72.42,17.92l-7.48,7.45c-.12-.19-.25-.38-.38-.56L72,17.36c.14.18.26.38.39.56"/></g></g></g><g class="cls-2"><g class="cls-18"><g class="cls-2"><path class="cls-4" d="M64.61,9.89l-7.47,7.44L56.62,17l-.49-.32-.54-.35,7.47-7.45.54.35.49.33a6.15,6.15,0,0,1,.52.37"/></g></g></g><g class="cls-2"><g class="cls-19"><g class="cls-2"><path class="cls-4" d="M73.09,19l-7.47,7.45-.35-.58-.33-.48,7.48-7.45c.1.16.21.32.32.48l.35.58"/></g></g></g><g class="cls-2"><g class="cls-20"><g class="cls-2"><path class="cls-4" d="M73.4,19.47l-7.48,7.45c-.09-.16-.19-.33-.3-.49L73.09,19c.11.16.21.33.31.49"/></g></g></g><g class="cls-2"><g class="cls-21"><g class="cls-2"><path class="cls-4" d="M63.06,8.84l-7.47,7.45L55.08,16l-.54-.32L62,8.21c.19.1.37.21.55.32l.5.31"/></g></g></g><g class="cls-2"><g class="cls-22"><g class="cls-2"><path class="cls-4" d="M74,20.58,66.54,28l-.27-.5-.35-.61,7.48-7.45.34.62c.09.16.19.32.27.49"/></g></g></g><g class="cls-2"><g class="cls-23"><g class="cls-2"><path class="cls-4" d="M62,8.21l-7.47,7.45c-.17-.1-.34-.2-.52-.29l-.55-.3L61,7.62l.55.3.51.29"/></g></g></g><g class="cls-2"><g class="cls-24"><g class="cls-2"><path class="cls-4" d="M74.58,21.7l-7.47,7.45-.24-.48c-.11-.22-.22-.44-.33-.64L74,20.58c.12.2.23.43.33.64s.17.32.24.48"/></g></g></g><g class="cls-2"><g class="cls-25"><g class="cls-2"><path class="cls-4" d="M61,7.62l-7.48,7.45L53,14.8l-.57-.28,7.48-7.44.56.27.53.27"/></g></g></g><g class="cls-2"><g class="cls-26"><g class="cls-2"><path class="cls-4" d="M74.9,22.4l-7.47,7.45c-.1-.23-.21-.46-.32-.7l7.47-7.45c.12.24.22.47.32.7"/></g></g></g><g class="cls-2"><g class="cls-27"><g class="cls-2"><path class="cls-4" d="M59.86,7.08l-7.48,7.44-.53-.24L51.28,14l-.54-.23,7.47-7.44c.18.07.37.14.54.22l.57.25.54.25"/></g></g></g><g class="cls-2"><g class="cls-28"><g class="cls-2"><path class="cls-4" d="M58.21,6.36,50.74,13.8l-.57-.22-.56-.19-.57-.2L48.47,13,56,5.57l.56.17.58.2.55.2.57.22"/></g></g></g><g class="cls-2"><g class="cls-29"><g class="cls-2"><path class="cls-4" d="M56,5.57,48.47,13l-.58-.18L55.36,5.4l.59.17"/></g></g></g><g class="cls-2"><g class="cls-30"><g class="cls-2"><path class="cls-4" d="M55.36,5.4l-7.47,7.44-.56-.15L54.8,5.25a5.12,5.12,0,0,1,.56.15"/></g></g></g><g class="cls-2"><g class="cls-31"><g class="cls-2"><path class="cls-4" d="M54.8,5.25l-7.47,7.44-.59-.14-.57-.13L53.64,5l.58.12.58.15"/></g></g></g><g class="cls-2"><g class="cls-32"><g class="cls-2"><path class="cls-4" d="M53.64,5l-7.47,7.44-.58-.11-.59-.1,7.48-7.44a5.4,5.4,0,0,1,.58.09l.58.12"/></g></g></g><g class="cls-2"><g class="cls-33"><g class="cls-2"><path class="cls-4" d="M52.48,4.77,45,12.21l-.58-.09-.58-.07L43.26,12l-.59,0-.58,0,7.47-7.45c.19,0,.39,0,.58,0l.59,0,.59.06.58.06.58.1"/></g></g></g><g class="cls-2"><g class="cls-34"><g class="cls-2"><path class="cls-4" d="M49.56,4.47l-7.47,7.45H40.33L47.8,4.48l.59,0h1.17"/></g></g></g><g class="cls-2"><g class="cls-35"><g class="cls-2"><path class="cls-4" d="M47.8,4.48l-7.47,7.44-.58,0-.58,0-.59.06,7.48-7.44.58-.07.58,0,.58,0"/></g></g></g><g class="cls-2"><g class="cls-36"><g class="cls-2"><path class="cls-4" d="M71.78,47,64.3,54.44c5.12-5.1,7-13.21,4.23-21.76q-.19-.6-.42-1.2c0-.12-.11-.25-.16-.38s-.2-.53-.32-.8-.13-.3-.2-.45L74.9,22.4c.07.16.14.3.21.45l.32.8.15.39c.15.39.29.79.42,1.19,2.78,8.55.89,16.67-4.22,21.76"/></g></g></g><g class="cls-2"><g class="cls-37"><g class="cls-2"><path class="cls-4" d="M46.06,4.62l-7.48,7.44-.45.06A38.94,38.94,0,0,0,15.74,23l7.47-7.45A39,39,0,0,1,45.61,4.67l.45,0"/></g></g></g><g class="cls-2"><g class="cls-38"><g class="cls-2"><path class="cls-4" d="M75,50.27l-7.48,7.45a21.94,21.94,0,0,1-12.62,6.11A18.62,18.62,0,0,0,44.22,69l7.47-7.45a18.71,18.71,0,0,1,10.73-5.19A21.94,21.94,0,0,0,75,50.27"/></g></g></g><g class="cls-2"><g class="cls-39"><g class="cls-2"><path class="cls-4" d="M44.14,85.76l-7.48,7.45c0-.15-.12-.3-.18-.45-.18-.47-.34-1-.49-1.42-3.27-10.06-1.05-19.6,5-25.6l7.47-7.45c-6,6-8.24,15.55-5,25.6.15.48.32,1,.49,1.42l.19.45"/></g></g></g><g class="cls-2"><g class="cls-40"><g class="cls-2"><path class="cls-4" d="M44.52,86.71l-7.47,7.44c-.14-.31-.26-.63-.39-.94l7.48-7.45c.12.32.24.63.38.95"/></g></g></g><g class="cls-2"><g class="cls-41"><g class="cls-2"><path class="cls-4" d="M44.75,87.23l-7.48,7.44-.22-.52,7.47-7.44c.07.17.16.35.23.52"/></g></g></g><g class="cls-2"><g class="cls-42"><g class="cls-2"><path class="cls-4" d="M46.12,90,38.64,97.4c-.09-.18-.21-.37-.3-.54s-.27-.53-.4-.8l-.28-.54-.39-.85,7.48-7.44c.13.28.25.56.39.84l.27.54c.13.27.26.54.4.8l.31.54"/></g></g></g><g class="cls-2"><g class="cls-43"><g class="cls-2"><path class="cls-4" d="M46.54,90.71l-7.47,7.44c-.15-.24-.28-.5-.43-.75L46.12,90l.42.76"/></g></g></g><g class="cls-2"><g class="cls-44"><g class="cls-2"><path class="cls-4" d="M46.88,91.25,39.4,98.69q-.16-.25-.33-.54l7.47-7.44.34.54"/></g></g></g><g class="cls-2"><g class="cls-45"><g class="cls-2"><path class="cls-4" d="M47.33,92l-7.48,7.45-.45-.74,7.48-7.44.45.73"/></g></g></g><g class="cls-2"><g class="cls-46"><g class="cls-2"><path class="cls-4" d="M57.46,102.38,50,109.83l-.52-.38-.53-.38-.64-.49,7.48-7.45c.2.16.41.33.63.49l.53.38.53.38"/></g></g></g><g class="cls-2"><g class="cls-47"><g class="cls-2"><path class="cls-4" d="M49.05,94.4l-7.47,7.45c-.18-.22-.34-.45-.51-.67l-.38-.52c-.16-.23-.31-.47-.48-.7s-.24-.36-.36-.53L47.33,92l.36.53c.16.24.31.47.48.7s.25.35.38.52.32.45.5.67"/></g></g></g><g class="cls-2"><g class="cls-48"><g class="cls-2"><path class="cls-4" d="M55.77,101.13l-7.48,7.45-.52-.41,7.47-7.45c.18.15.35.28.53.41"/></g></g></g><g class="cls-2"><g class="cls-49"><g class="cls-2"><path class="cls-4" d="M55.24,100.72l-7.47,7.45-.62-.51,7.47-7.45c.2.17.41.35.62.51"/></g></g></g><g class="cls-2"><g class="cls-50"><g class="cls-2"><path class="cls-4" d="M50,95.56,42.51,103c-.19-.21-.36-.43-.53-.65l-.4-.51,7.47-7.45c.13.18.27.35.4.51s.35.44.53.65"/></g></g></g><g class="cls-2"><g class="cls-51"><g class="cls-2"><path class="cls-4" d="M51,96.68l-7.48,7.45c-.19-.2-.37-.41-.55-.63s-.29-.32-.42-.49L50,95.56l.42.5c.19.21.37.42.56.62"/></g></g></g><g class="cls-2"><g class="cls-52"><g class="cls-2"><path class="cls-4" d="M54.62,100.21l-7.47,7.45c-.18-.14-.34-.29-.51-.43l-.61-.55-.48-.44L53,98.8l.49.44c.2.18.4.37.6.54l.51.43"/></g></g></g><g class="cls-2"><g class="cls-53"><g class="cls-2"><path class="cls-4" d="M53,98.8l-7.47,7.44c-.2-.19-.4-.38-.59-.58l7.47-7.44c.2.19.4.38.59.58"/></g></g></g><g class="cls-2"><g class="cls-54"><g class="cls-2"><path class="cls-4" d="M52.43,98.22,45,105.66c-.15-.15-.32-.3-.46-.45l-.58-.6-.44-.48L51,96.68c.14.17.29.32.44.48l.57.6c.15.15.31.3.46.46"/></g></g></g><g class="cls-2"><g class="cls-55"><g class="cls-2"><path class="cls-4" d="M103.52,96.33l-7.47,7.45a42.23,42.23,0,0,1-24.3,11.76C43.43,119.52,12.54,98.62,2.9,69c-6.29-19.35-2-37.72,9.57-49.27L20,12.23C8.36,23.78,4.09,42.15,10.37,61.5,20,91.17,50.91,112.07,79.23,108.09a42.2,42.2,0,0,0,24.29-11.76"/></g></g></g><path class="cls-56" d="M45.63.31c27.93-3.12,58,17.57,67.46,46.75,9.65,29.67-5.55,57.05-33.86,61S20,91.17,10.37,61.5,15.87,4.56,44.08.5l1-.14ZM14.39,60.93a64.82,64.82,0,0,0,43.07,41.45l-.53-.38-.53-.38c-.22-.16-.43-.33-.63-.49s-.35-.26-.53-.41-.42-.34-.62-.51l-.51-.43c-.2-.17-.4-.36-.6-.54L53,98.8c-.19-.2-.39-.39-.59-.58s-.31-.31-.46-.46l-.57-.6c-.15-.16-.3-.31-.44-.48s-.37-.41-.56-.62l-.42-.5c-.18-.21-.35-.43-.53-.65s-.27-.33-.4-.51-.34-.45-.5-.67-.26-.34-.38-.52-.32-.46-.48-.7L47.33,92l-.45-.73-.34-.54L46.12,90l-.31-.54c-.14-.26-.27-.53-.4-.8l-.27-.54c-.14-.28-.26-.56-.39-.84s-.16-.35-.23-.52-.26-.63-.38-.95L44,85.31c-.17-.47-.34-.94-.49-1.42-5-15.42,2.88-29.64,17.59-31.7,12.51-1.76,19.21-13.85,15-27-.13-.4-.27-.8-.42-1.19l-.15-.39-.32-.8c-.07-.15-.14-.29-.21-.45s-.2-.46-.32-.7-.15-.32-.24-.48-.21-.44-.33-.64-.18-.33-.27-.49l-.34-.62c-.1-.16-.2-.33-.31-.49l-.35-.58c-.11-.16-.22-.32-.32-.48s-.25-.38-.39-.56l-.34-.47c-.14-.18-.26-.37-.4-.54l-.37-.47-.41-.51c-.14-.16-.27-.3-.39-.45l-.43-.5L69.28,14l-.45-.48-.42-.42c-.16-.15-.31-.31-.47-.45l-.44-.41L67,11.79l-.46-.38c-.16-.14-.32-.28-.49-.41l-.47-.37c-.16-.13-.33-.27-.5-.39l-.49-.35a6.15,6.15,0,0,0-.52-.37l-.49-.33-.54-.35-.5-.31c-.18-.11-.36-.22-.55-.32l-.51-.29L61,7.62l-.53-.27-.56-.27-.54-.25-.57-.25c-.17-.08-.36-.15-.54-.22l-.57-.22-.55-.2-.58-.2L56,5.57l-.59-.17a5.12,5.12,0,0,0-.56-.15l-.58-.15L53.64,5l-.58-.12a5.4,5.4,0,0,0-.58-.09l-.58-.1-.58-.06-.59-.06-.59,0c-.19,0-.39,0-.58,0H48.39l-.59,0-.58,0-.58,0-.58.07-.45,0C19.5,8.34,5.5,33.59,14.39,60.93m63.47,43C104,100.23,118,75,109.08,47.63A64.81,64.81,0,0,0,66,6.19l.46.33.61.43.57.44.58.46c.2.15.39.31.57.47l.56.47c.19.16.37.34.56.51l.53.48.55.54.5.49.54.57c.16.17.32.33.47.5l.53.6.45.52.5.63.43.53.48.66c.14.18.27.35.39.53s.32.46.48.69l.36.55c.16.24.3.48.45.71s.23.37.33.55.29.5.43.75l.31.56.4.78.27.55c.14.29.26.57.39.85l.24.51.38,1,.18.44c.17.47.33.95.49,1.42,5,15.42-2.88,29.65-17.59,31.71-12.5,1.76-19.21,13.85-15,26.95s17.89,22.32,30.39,20.57"/></g></g></g></svg>