<?xml version="1.0" encoding="UTF-8"?>
<svg xmlns="http://www.w3.org/2000/svg" xmlns:xlink="http://www.w3.org/1999/xlink" viewBox="0 0 22 22" width="22px" height="22px">
<g id="surface64754843">
<path style=" stroke:none;fill-rule:nonzero;fill:rgb(100%,100%,100%);fill-opacity:1;" d="M 19.753906 6.378906 C 19.578125 5.414062 18.746094 4.707031 17.773438 4.488281 C 16.324219 4.179688 13.640625 3.960938 10.734375 3.960938 C 7.832031 3.960938 5.105469 4.179688 3.652344 4.488281 C 2.683594 4.707031 1.847656 5.367188 1.671875 6.378906 C 1.496094 7.480469 1.320312 9.019531 1.320312 11 C 1.320312 12.980469 1.496094 14.519531 1.714844 15.621094 C 1.890625 16.585938 2.726562 17.292969 3.695312 17.511719 C 5.234375 17.820312 7.875 18.039062 10.78125 18.039062 C 13.683594 18.039062 16.324219 17.820312 17.863281 17.511719 C 18.832031 17.292969 19.667969 16.632812 19.84375 15.621094 C 20.019531 14.519531 20.238281 12.933594 20.285156 11 C 20.195312 9.019531 19.976562 7.480469 19.753906 6.378906 Z M 8.359375 14.078125 L 8.359375 7.921875 L 13.726562 11 Z M 8.359375 14.078125 "/>
</g>
</svg>
