<?xml version="1.0" encoding="UTF-8"?>
<svg xmlns="http://www.w3.org/2000/svg" xmlns:xlink="http://www.w3.org/1999/xlink" viewBox="0 0 20 20" width="20px" height="20px">
<g id="surface62773056">
<path style=" stroke:none;fill-rule:nonzero;fill:rgb(100%,100%,100%);fill-opacity:1;" d="M 17.960938 5.800781 C 17.800781 4.921875 17.039062 4.28125 16.160156 4.078125 C 14.839844 3.800781 12.398438 3.601562 9.757812 3.601562 C 7.121094 3.601562 4.640625 3.800781 3.320312 4.078125 C 2.441406 4.28125 1.679688 4.878906 1.519531 5.800781 C 1.359375 6.800781 1.199219 8.199219 1.199219 10 C 1.199219 11.800781 1.359375 13.199219 1.558594 14.199219 C 1.71875 15.078125 2.480469 15.71875 3.359375 15.921875 C 4.757812 16.199219 7.160156 16.398438 9.800781 16.398438 C 12.441406 16.398438 14.839844 16.199219 16.242188 15.921875 C 17.121094 15.71875 17.878906 15.121094 18.039062 14.199219 C 18.199219 13.199219 18.398438 11.757812 18.441406 10 C 18.359375 8.199219 18.160156 6.800781 17.960938 5.800781 Z M 7.601562 12.800781 L 7.601562 7.199219 L 12.480469 10 Z M 7.601562 12.800781 "/>
</g>
</svg>
