<svg id="Layer_1" data-name="Layer 1" xmlns="http://www.w3.org/2000/svg" viewBox="0 0 678.18 678.18"><defs><style>.cls-1{fill:#fff;}</style></defs><circle class="cls-1" cx="339.09" cy="339.09" r="334.57"/><path d="M7200,7535.17c-187,0-339.09-152.11-339.09-339.09S7013,6857,7200,6857s339.09,152.12,339.09,339.09S7387,7535.17,7200,7535.17Zm0-669.13c-182,0-330.05,148.05-330.05,330S7018,7526.13,7200,7526.13s330.05-148.06,330.05-330.05S7382,6866,7200,6866Z" transform="translate(-6860.91 -6856.99)"/><path d="M7184.18,7311.37c-45.22-4.52-63.3-36.17-63.3-67.82,0-54.25,45.21-67.81,82-72.18,3.73-.44,7.45-.76,11.14-1.51,26.66-5.43,51.31-23.31,49.27-64.2-4.52-90.42-122.08-81.38-122.08-81.38-122.07,4.52-195.75,148.35-167.28,262.23,36,144.06,167.13,208.9,201.19,219.27,1.06.32,1.11,4.55,0,4.52-167.8-3.93-301.51-159.61-293.87-330,7.24-161.75,145.52-302.92,307.44-302.92h13.56c102.12,0,217,76.86,230.58,194.41,0,0,13.15,107.2-40.69,171.8C7324.33,7324.94,7184.18,7311.37,7184.18,7311.37Z" transform="translate(-6860.91 -6856.99)"/><path d="M7175.14,7512h-.05c-77.66-1.82-151.36-35.94-207.51-96.06-59.78-64-91.86-149.93-88-235.76,7.4-165.08,149-304.54,309.14-304.54h13.56c51.75,0,106.26,19.5,149.55,53.49,47,36.91,76.38,87.49,82.71,142.43a314.94,314.94,0,0,1-.15,62c-3.16,32.06-12.83,77.35-40.92,111.05-67.61,81.13-208,68.57-209.44,68.42h0c-47.8-4.78-64.83-39-64.83-69.51,0-43,27.32-67.19,83.51-73.86l2.41-.28c3-.33,5.77-.64,8.59-1.21,18.87-3.84,50.18-17.06,47.91-62.46-1.1-22.18-9.3-40.15-24.35-53.41-34.8-30.65-95.3-26.41-95.9-26.36-48.64,1.8-93.24,26.55-125.65,69.68-40,53.21-55.73,128-40.11,190.45,34.71,138.85,159.17,205.62,200,218.06,2.16.66,2.12,4,1.92,5.23C7177.16,7511.78,7175.66,7512,7175.14,7512Zm13.56-633c-158.42,0-298.43,138-305.75,301.3-3.8,84.93,27.95,170,87.11,233.3,55.29,59.2,127.77,92.9,204.17,95a4.48,4.48,0,0,0-.08-1.34c-41.83-13-166.9-80.51-201.85-220.33-16.11-64.41-.51-138.48,40.68-193.31,33-44,78.56-69.19,128.18-71,.56-.05,62.44-4.4,98.32,27.2,15.77,13.89,24.35,32.66,25.51,55.79,2.4,47.93-30.69,61.9-50.63,66-3,.61-6,.94-8.89,1.27l-2.38.27c-54.18,6.42-80.52,29.48-80.52,70.49,0,29,16.23,61.58,61.77,66.14,1.72.16,140.13,12.43,206.51-67.22,52.76-63.31,40.44-169.45,40.31-170.51-10.71-92.79-101.26-192.93-228.9-192.93Z" transform="translate(-6860.91 -6856.99)"/><circle class="cls-1" cx="323.26" cy="382.04" r="20.35"/><circle cx="305.18" cy="237.36" r="20.35"/></svg>