<svg
  xmlns="http://www.w3.org/2000/svg"
  viewBox="0 0 287.56 52.35"
>
<defs>
<style>.cls-1{fill:#fff;}</style>
</defs>
  <g id="Layer_1-2" data-name="Layer 1">
    <path
      class="cls-1"
      d="M161.89,7.93A26,26,0,0,0,143.9,0H143a26.22,26.22,0,1,0,18.86,7.93ZM143.15,28.87a14.46,14.46,0,0,0,14.44-14.44c0-.29,0-.61,0-1l0-.25c0-.31-.06-.62-.11-1s-.11-.63-.18-.94l-.05-.23c0-.09-.05-.19-.07-.29a20.78,20.78,0,0,1-14,36.17,9,9,0,1,1,0-18.09Zm1.69-23.32.29.06a1.89,1.89,0,0,1,.34.09l.23.06.28.08.33.12.2.08.28.11.33.16.21.11.24.12.28.18.21.13.24.15.29.22.17.13a1.84,1.84,0,0,1,.22.17l.27.24.17.17.19.17c.08.08.15.17.23.26l.18.2.16.18.2.27.17.23.14.19.18.29L151,10l.11.19.17.34.1.22.11.23c.05.12.09.25.14.39l.08.22a1.72,1.72,0,0,1,.07.21c0,.13.08.27.11.41l0,.11a.83.83,0,0,0,0,.15c0,.06,0,.12,0,.18s0,.33.08.49v.11s0,.09,0,.13l0,.16c0,.3,0,.61,0,.91a9.06,9.06,0,0,1-9,9.05,14.45,14.45,0,0,0-14.43,14.44c0,.35,0,.69,0,1l0,.24c0,.31.06.62.11,1s.09.57.17.94l.06.23c0,.1,0,.2.07.29a20.78,20.78,0,0,1,14-36.17h.15l.4,0,.22,0a1.84,1.84,0,0,1,.33,0l.37,0Z"
    />
    <path
      class="cls-1"
      d="M22.48,16.18H15.14V43.25H7.34V16.18H0V9.26H22.48Z"
    />
    <path
      class="cls-1"
      d="M53.55,43.21l-1-3.72H40.73l-1,3.72H31.63L40.78,9.26H52.53l9.15,34Zm-11-10.36h8.22L46.63,17.52Z"
    />
    <path
      class="cls-1"
      d="M95.4,34.11a10.4,10.4,0,0,1-.88,3.76,9.11,9.11,0,0,1-2.23,3.06A10.77,10.77,0,0,1,88.8,43a13.29,13.29,0,0,1-4.69.77H83A13.52,13.52,0,0,1,78.14,43a10.14,10.14,0,0,1-3.53-2.2,9.63,9.63,0,0,1-2.16-3.25,10.67,10.67,0,0,1-.74-4V18.45a10.4,10.4,0,0,1,.88-3.76A9.42,9.42,0,0,1,74.8,11.6a9.83,9.83,0,0,1,3.48-2.06A13.79,13.79,0,0,1,83,8.79h1.11A13.31,13.31,0,0,1,89,9.61a10.09,10.09,0,0,1,3.52,2.2,9.26,9.26,0,0,1,2.16,3.25,10.47,10.47,0,0,1,.75,4ZM84.11,37a3.17,3.17,0,0,0,1.33-.28A3.78,3.78,0,0,0,86.55,36a3.73,3.73,0,0,0,.77-1.12,3.32,3.32,0,0,0,.27-1.32V19a3.33,3.33,0,0,0-1-2.44,3.37,3.37,0,0,0-2.44-1H83a3.17,3.17,0,0,0-1.33.28,3.54,3.54,0,0,0-1.11.76,3.73,3.73,0,0,0-.77,1.12A3.29,3.29,0,0,0,79.51,19V33.55a3.33,3.33,0,0,0,.28,1.32A3.73,3.73,0,0,0,80.56,36a3.54,3.54,0,0,0,1.11.76A3.17,3.17,0,0,0,83,37Z"
    />
    <path
      class="cls-1"
      d="M213.71,33.38a10.75,10.75,0,0,1-.83,3.74,9,9,0,0,1-2.13,3,10.18,10.18,0,0,1-3.41,2.07,13.43,13.43,0,0,1-4.56.81H190.07v-34h12.71a12.94,12.94,0,0,1,4.7.88,10.38,10.38,0,0,1,3.45,2.2A9.2,9.2,0,0,1,213,15.34a10.62,10.62,0,0,1,.72,3.92V33.38Zm-11.26,2.93a3.37,3.37,0,0,0,2.44-1.05A3.28,3.28,0,0,0,206,32.83V19.26a3.29,3.29,0,0,0-1.06-2.43,3.37,3.37,0,0,0-2.44-1h-4.58V36.31Z"
    />
    <path
      class="cls-1"
      d="M245.71,43l-1-3.72H232.89l-1,3.72h-8.13l9.15-33.95h11.75l9.15,34Zm-11-10.36h8.22l-4.13-15.33Z"
    />
    <path
      class="cls-1"
      d="M287.56,33.89a10.4,10.4,0,0,1-.88,3.77,9.11,9.11,0,0,1-2.23,3.06A10.67,10.67,0,0,1,281,42.79a13.3,13.3,0,0,1-4.69.76h-1.11a13.53,13.53,0,0,1-4.86-.81,10.29,10.29,0,0,1-3.53-2.2,9.63,9.63,0,0,1-2.16-3.25,10.67,10.67,0,0,1-.74-3.95V18.24a10.4,10.4,0,0,1,.88-3.76A9.42,9.42,0,0,1,267,11.39a9.83,9.83,0,0,1,3.48-2.06,13.79,13.79,0,0,1,4.72-.75h1.11a13.53,13.53,0,0,1,4.86.81,10.4,10.4,0,0,1,3.53,2.21,9.37,9.37,0,0,1,2.15,3.25,10.47,10.47,0,0,1,.75,4Zm-11.29,2.93a3.17,3.17,0,0,0,1.33-.28,3.66,3.66,0,0,0,1.11-.76,3.73,3.73,0,0,0,.77-1.12,3.33,3.33,0,0,0,.28-1.32V18.8a3.57,3.57,0,0,0-3.49-3.48h-1.11a3.33,3.33,0,0,0-1.33.27,3.88,3.88,0,0,0-1.11.77,3.73,3.73,0,0,0-.77,1.12,3.29,3.29,0,0,0-.28,1.32V33.34a3.33,3.33,0,0,0,.28,1.32,3.73,3.73,0,0,0,.77,1.12,3.66,3.66,0,0,0,1.11.76,3.17,3.17,0,0,0,1.33.28Z"
    />
  </g>
</svg>
